<?xml version="1.0" encoding="UTF-8"?>
<svg id="Camada_2" data-name="Camada 2" xmlns="http://www.w3.org/2000/svg" xmlns:xlink="http://www.w3.org/1999/xlink" viewBox="0 0 816 816">
  <defs>
    <style>
      .cls-1 {
        fill: #69675c;
      }

      .cls-2 {
        fill: #708169;
      }

      .cls-3 {
        fill: #cfa7a0;
      }

      .cls-4 {
        fill: #fcfbe9;
      }

      .cls-5 {
        fill: #73832b;
      }

      .cls-6 {
        fill: #c6d5bc;
      }

      .cls-7 {
        fill: #fff;
      }

      .cls-8 {
        fill: #6c7874;
      }

      .cls-9 {
        fill: #d9e0cd;
      }

      .cls-10 {
        fill: #886056;
      }

      .cls-11 {
        fill: #ac9d86;
      }

      .cls-12 {
        fill: #e3e89e;
      }

      .cls-13 {
        fill: #c4d35c;
      }

      .cls-14 {
        fill: url(#Gradiente_sem_nome_25);
      }

      .cls-15 {
        fill: #5b6655;
      }

      .cls-16 {
        fill: #cbccc6;
      }

      .cls-17 {
        fill: #d6cfcb;
      }

      .cls-18 {
        fill: #78847e;
      }

      .cls-19 {
        fill: #2c2d2e;
      }

      .cls-20 {
        fill: #e3e2df;
      }

      .cls-21 {
        fill: url(#Gradiente_sem_nome_15);
      }

      .cls-22 {
        fill: #c5655d;
      }

      .cls-23 {
        fill: #4b5248;
      }

      .cls-24 {
        fill: url(#Gradiente_sem_nome_22);
      }

      .cls-25 {
        fill: #eebab2;
      }

      .cls-26 {
        fill: #1c1f22;
      }

      .cls-27 {
        fill: #aca49a;
      }

      .cls-28 {
        fill: #f19788;
      }

      .cls-29 {
        fill: #bab6b5;
      }

      .cls-30 {
        fill: #a1ae94;
      }

      .cls-31 {
        fill: #bccc92;
      }

      .cls-32 {
        fill: #5b6662;
      }

      .cls-33 {
        fill: url(#Gradiente_sem_nome_20);
      }

      .cls-34 {
        fill: #4f552a;
      }

      .cls-35 {
        fill: #8b9889;
      }

      .cls-36 {
        fill: #685b52;
      }

      .cls-37 {
        fill: #617153;
      }

      .cls-38 {
        fill: #727666;
      }

      .cls-39 {
        fill: url(#Gradiente_sem_nome_18);
      }

      .cls-40 {
        fill: #c28d87;
      }

      .cls-41 {
        fill: #dab8a5;
      }

      .cls-42 {
        fill: #bcbda7;
      }

      .cls-43 {
        fill: #b69185;
      }
    </style>
    <linearGradient id="Gradiente_sem_nome_15" data-name="Gradiente sem nome 15" x1="324.96" y1="570.84" x2="272.16" y2="785.57" gradientUnits="userSpaceOnUse">
      <stop offset="0" stop-color="#bdb0a8"/>
      <stop offset="1" stop-color="#f1ebe8"/>
    </linearGradient>
    <linearGradient id="Gradiente_sem_nome_18" data-name="Gradiente sem nome 18" x1="503.75" y1="335.4" x2="345.61" y2="351.48" gradientUnits="userSpaceOnUse">
      <stop offset="0" stop-color="#c6d5bc"/>
      <stop offset="1" stop-color="#869880"/>
    </linearGradient>
    <linearGradient id="Gradiente_sem_nome_20" data-name="Gradiente sem nome 20" x1="288.91" y1="282.2" x2="169.56" y2="404.16" gradientUnits="userSpaceOnUse">
      <stop offset="0" stop-color="#808f7c"/>
      <stop offset="1" stop-color="#636d68"/>
    </linearGradient>
    <linearGradient id="Gradiente_sem_nome_22" data-name="Gradiente sem nome 22" x1="244.22" y1="172.62" x2="195.81" y2="289.62" gradientUnits="userSpaceOnUse">
      <stop offset="0" stop-color="#dd6963"/>
      <stop offset="1" stop-color="#b55f5a"/>
    </linearGradient>
    <linearGradient id="Gradiente_sem_nome_25" data-name="Gradiente sem nome 25" x1="657.97" y1="225.19" x2="549.83" y2="235.85" gradientUnits="userSpaceOnUse">
      <stop offset="0" stop-color="#ed7771"/>
      <stop offset="1" stop-color="#f7cfca"/>
    </linearGradient>
  </defs>
  <g id="Camada_1-2" data-name="Camada 1">
    <path class="cls-7" d="M816,408c0,90.03-29.16,173.24-78.54,240.71-1.08,1.48-2.17,2.94-3.28,4.4-14.03,18.67-29.64,36.09-46.63,52.06-9.89,9.31-20.25,18.14-31.03,26.43-28.51,21.93-60,40.17-93.75,54.01-.75.31-1.5.61-2.25.91-15.95,6.45-32.38,11.9-49.26,16.29-3.3.86-6.61,1.68-9.94,2.46-.74.18-1.48.35-2.23.52-9.09,2.07-18.29,3.85-27.61,5.3-8.15,1.27-16.38,2.3-24.69,3.08h-.02c-3.21.32-6.45.59-9.68.81h-.1c-2.1.15-4.21.28-6.33.4-4.29.24-8.61.41-12.94.51-3.23.07-6.47.11-9.72.11-2.64,0-5.27-.02-7.89-.08-1.08-.02-2.16-.04-3.24-.07-3.21-.09-6.42-.21-9.61-.38-5.99-.29-11.95-.73-17.87-1.29-18.06-1.68-35.78-4.55-53.07-8.53-1.36-.31-2.72-.63-4.08-.96-2.51-.6-5.01-1.23-7.5-1.88-18-4.69-35.5-10.58-52.44-17.58-.75-.31-1.5-.62-2.25-.95-26.23-11.01-51.06-24.69-74.15-40.7-5.14-3.55-10.19-7.22-15.15-11.01-19.51-14.88-37.63-31.48-54.14-49.57-1.76-1.92-3.49-3.85-5.21-5.81-6.39-7.27-12.52-14.77-18.37-22.48C30.92,586.2,0,500.71,0,408,0,264.11,74.48,137.62,187,64.99c3.22-2.09,6.47-4.12,9.75-6.1,1.96-1.2,3.93-2.37,5.92-3.52,17.52-10.24,35.88-19.19,54.94-26.75.88-.36,1.77-.7,2.66-1.05,2-.78,4.01-1.54,6.03-2.28.49-.19.97-.37,1.46-.55h0c3.05-1.12,6.11-2.2,9.2-3.24.45-.16.91-.31,1.37-.46,3.26-1.1,6.55-2.15,9.86-3.16.91-.28,1.82-.56,2.73-.83h.01c.96-.29,1.91-.57,2.88-.85,8.44-2.46,17-4.65,25.66-6.56,1.04-.24,2.07-.46,3.12-.68,2.83-.61,5.68-1.19,8.54-1.73h.02c18.32-3.5,37.08-5.76,56.19-6.72h.02c6.77-.33,13.58-.51,20.44-.51h.19c9.41,0,18.74.32,27.98.95h.01c6.48.43,12.92,1.03,19.32,1.77.01-.01.01,0,.02,0,18.49,2.13,36.61,5.51,54.26,10.04,1.29.32,2.58.66,3.86,1h0c10.07,2.69,19.98,5.75,29.72,9.17.35.12.68.24,1.03.37h.01c1.14.4,2.27.81,3.41,1.23h.01c1.33.48,2.66.97,3.98,1.47,1.61.6,3.2,1.21,4.79,1.84h.01c.9.35,1.8.7,2.69,1.06h.01c2.28.91,4.53,1.83,6.79,2.79,1.12.46,2.23.94,3.35,1.43h.01c2.9,1.24,5.79,2.52,8.65,3.84.61.28,1.21.56,1.82.84,3.23,1.5,6.45,3.04,9.63,4.63.4.2.8.4,1.2.6,9.98,5,19.72,10.39,29.21,16.17,1.78,1.08,3.56,2.18,5.32,3.3,1.37.85,2.73,1.72,4.09,2.61,1.8,1.15,3.59,2.33,5.37,3.53,1.47.97,2.92,1.96,4.37,2.95,106.95,73.56,177.08,196.8,177.08,336.41Z"/>
    <g>
      <path class="cls-7" d="M560.52,363.4v423.12c-15.95,6.45-32.38,11.9-49.26,16.29-3.3.86-6.61,1.68-9.94,2.46-.74.18-1.48.35-2.23.52-9.09,2.07-18.29,3.85-27.61,5.3-8.15,1.27-16.38,2.3-24.69,3.08h-.02c-3.21.32-6.45.59-9.68.81h-.1c-2.1.15-4.21.28-6.33.4-4.29.24-8.61.41-12.94.51-3.23.07-6.47.11-9.72.11-2.64,0-5.27-.02-7.89-.08-1.08-.02-2.16-.04-3.24-.07-3.21-.09-6.42-.21-9.61-.38-5.99-.29-11.95-.73-17.87-1.29-18.06-1.68-35.78-4.55-53.07-8.53-1.36-.31-2.72-.63-4.08-.96-2.51-.6-5.01-1.23-7.5-1.88-18-4.69-35.5-10.58-52.44-17.58-.75-.31-1.5-.62-2.25-.95v-363.24s0-.01,0-.01v-57.63h310.47Z"/>
      <path class="cls-7" d="M660.92,174.37c0,.1-.01.2-.02.31-.01.15-.02.3-.03.45,0,.01-.01.01-.01.01,0,.01.01.02.01.02-.32,4.54-.7,8.45-.93,11.2-2.56,29.99-11.65,54.76-17.96,83.07-1.17,5.22-2.25,10.38-3.29,15.48v.02s-.01.02-.01.03h0c-2.15,10.52-4.15,20.81-6.38,31.12-2.38,11.06-5.01,22.14-8.37,33.48h0c-.54,1.88-1.12,3.75-1.71,5.64-1.27,4.05-9.73,20.67-9.87,22.45-.54,6.73,8.34,42.65,11.56,61.55.48,2.81.83,5.25,1.01,7.15.84,8.86,1.49,17.82,1.65,26.78h0c.14,8.45-.15,16.88-1.17,25.21h0c-.6,4.95-1.45,9.84-2.62,14.69-.15.66-.32,1.33-.49,1.99h0c-.9,3.49-1.96,6.94-3.21,10.36-2.71-1.42-5.47-2.7-8.26-3.9h-.01c-15.41-6.57-31.85-10.07-47.86-14.96l-.89,1.79c17.97,3.87,35.31,9.31,52.26,16.34h.01c1.29.52,2.56,1.07,3.85,1.62.29.37.34,1.09.21,2.05-.43,3.36-3.03,9.62-5.11,14.07h0c-.16.35-.31.67-.46.98-.77,1.6-1.43,2.88-1.82,3.56-5.46-2.63-10.99-4.94-16.61-7.19l-.9.9c2.15.89,5.08,1.22,6.28,3.59,3.51.74,8.17,2.34,10.78,4.94.09.42-1.52,3.33-3.41,6.64h0c-.16.29-.32.57-.48.86h0c-2.2,3.84-4.6,7.93-5.09,9.12-.08.2.1,1.4.02,2.78t0,.01c-.11,2.01-.77,4.36-3.61,4.39-.38,1.13-1.64,2.64-1.8,3.59-.61,3.65,4.16,15.47,6.29,19.76.1.21,4.81,1.51,0,2.7,14.32,18.68,23.64,75.22,34.12,98.78l19.93,33.8c-28.51,21.93-60,40.17-93.75,54.01-.75.31-1.5.61-2.25.91-15.95,6.45-32.38,11.9-49.26,16.29-3.3.86-6.61,1.68-9.94,2.46-.12-.23-.23-.46-.34-.69h0c-1.67-3.45-3.01-7.25-5.38-10.24-.83-1.05-1.7-2.02-2.64-2.95h-.01c-6.46-6.41-15.31-9.98-24.29-10.97-10.09,8.27-27.22,23.09-38,34.96-4.29.24-8.61.41-12.94.51-3.23.07-6.47.11-9.72.11-2.64,0-5.27-.02-7.89-.08-.23-4.71-.44-8.29-.6-9.9-4.5-43.11-9.59-83.82-21.63-120.21-4.53-13.7-10.05-26.78-16.89-39.15-8.44-15.3-18.92-29.5-32.06-42.42-.39-.38-.78-.76-1.17-1.13-9.17-8.87-19.61-17.11-31.54-24.67-.39-.26-.78-.5-1.17-.74h-.01c-4.07-2.56-8.31-5.03-12.73-7.42-.13-.07-.26-.14-.38-.19-.61-.29-1.16-.44-1.62-.62-.96-.35-1.48-.8-1.14-2.78-4.58,2.46-9.04-2.61-13.47-3.6-1.29-.29-2.09-.31-2.6-.24h-.02c-.63.08-.82.28-.97.24-.66-.16-1.29-.31-1.94-.46h-.02c-3.39-.76-6.69-1.33-10.1-1.96-.47-.09-.94-.18-1.41-.27-2.16-.42-4.12-1.44-6.29-1.8-7.72,4.21-15.31,8.59-22,14.37-.29-.25-.56-.49-.83-.74,0,0,0-.01,0-.01h-.01c-1.2-1.14-2.26-2.36-3.26-3.64-.01-.01,0-.02,0-.02-.08-1.37.1-2.57.02-2.77-.95-2.33-9.18-15.67-8.98-16.61,2.61-2.6,7.27-4.2,10.78-4.94,1.2-2.38,4.13-2.71,6.28-3.59l-.9-.9c-5.62,2.24-11.15,4.56-16.61,7.18-1.77-3.06-8.95-18.37-7.18-20.65,1.82-.78,3.65-1.55,5.48-2.29.65-.27,1.31-.54,1.97-.8.94-.38,1.88-.75,2.82-1.11.78-.31,1.55-.6,2.33-.89.18-.08.37-.15.56-.21.85-.32,1.7-.64,2.56-.96,1.42-.52,2.83-1.03,4.25-1.52.64-.23,1.28-.45,1.91-.66.5-.18,1-.35,1.49-.51.49-.17.99-.34,1.49-.5.06-.02.12-.04.18-.06.81-.27,1.62-.53,2.43-.79.32-.11.64-.21.95-.3,1.16-.37,2.32-.73,3.48-1.08.71-.22,1.42-.44,2.12-.64.61-.17,1.24-.36,1.86-.54,1.64-.48,3.28-.94,4.93-1.38,1.04-.28,2.09-.56,3.13-.83.7-.19,1.4-.36,2.1-.54.95-.24,1.9-.47,2.86-.7.08-.02.17-.04.25-.06.41-.11.83-.21,1.25-.3,1.9-.45,3.81-.88,5.72-1.29l-.89-1.8c-1.61.49-3.22.97-4.83,1.43-1.08.32-2.17.63-3.26.93-5.44,1.54-10.9,3.01-16.33,4.57-.93.27-1.87.54-2.8.82-.47.13-.94.27-1.41.42-.55.16-1.1.33-1.65.5-.45.13-.89.27-1.33.41-.48.15-.95.3-1.42.45-.99.31-1.97.63-2.95.96-.73.24-1.45.49-2.16.74-.45.16-.89.31-1.33.47-.79.28-1.58.56-2.37.86-.81.3-1.62.61-2.43.93-.88.34-1.75.7-2.61,1.06-.68.28-1.36.57-2.04.87-.4.17-.79.35-1.19.53-.33.14-.66.29-.99.45-.45.21-.91.42-1.36.63-.23.11-.45.22-.68.33-1,.48-2,.98-2.99,1.5-1.25-3.42-2.31-6.87-3.21-10.35,8.61-3.25,23.57-6.86,27.05-7.62,9.08-1.95,18.24-3.45,27.46-4.5,5.93-.68,11.89-1.17,17.87-1.48h.01c6.9-.35,13.8-.46,20.71-.32h.12c.25.01.49.01.74.02.25.08.28.64.17,1.52-.46,3.56-3.28,12.22-3.31,13.75-.01.73.92,1.36,1.44,1.8h.01c.2.18.34.32.34.44.01.32.02.81.03,1.43h0c.06,2.38.17,6.6.53,10.52.05.5.1,1.01.16,1.5h0c.43,3.9,1.17,7.19,2.42,7.65.61.23,8.26-3.81,12.58-2.69.74.19,1.7,1.17,2.65,2.34.23.28.45.57.67.87,1.43,1.9,2.7,3.93,2.96,3.97.27.05,3.37-2,5.14-3.02.57-.34,1-.56,1.15-.57.93-.06,2.82.35,5.23.98h.01c1.18.32,2.46.68,3.83,1.07,1.87.54,3.87,1.12,5.86,1.68h.01c4.59,1.28,9.15,2.43,12,2.56,12.1.55,21.71-2.29,29.99-7.81h.01c6.69-4.46,12.5-10.66,18.05-18.23-4.07-4.32-7.56-11.4-11.68-15.72-.28-.3-.61-.62-.97-.95-4.36-4.1-13.73-10.74-15.19-12.97-8.08-12.3,10.97-10.97,24.63-9.33,1.21.14,2.37.29,3.47.43,0,0,0-.01.01,0,3.9.5,6.98.91,8.26.82,2.1-.15,5.65-1.45,8.96-2.44,2.02-.61,3.95-1.1,5.41-1.15,3.53-.12,8.52.75,11.81,2.77h.02c3.07,1.91,4.65,4.81,2.09,8.9-2.17,3.45-9.72,7.06-13.47,11.23-1.41,1.56-2.74,3.25-4.03,5-.62.83-1.23,1.68-1.83,2.54,0,0,0,.01-.01.01-3.04,4.33-5.98,8.84-9.4,12.65,1.82.45,5.26,3.7,9.41,7.59,3.02,2.83,6.41,6,9.86,8.7h.01c2.67,2.09,5.37,3.9,7.93,5.02h.01c1.3.57,2.56.97,3.76,1.14,2.25.33,3.98.37,5.38.17,3.97-.52,5.29-2.94,8.59-6.18.52-.52,1.1-1.06,1.75-1.62-3.08-7.08-1.71-16.17-3.59-24.25-.72-3.1-2.04-6.11-3.56-9.04-.66-1.26-1.36-2.5-2.05-3.73-2.44-4.31-4.92-8.42-6.07-12.37-.58-2-.99-4.07-1.33-6.19-1.29-8.17-1.38-17.17-4.96-26.14-3.81-9.58-9.82-15.45-15.73-21.96-1.25-1.37-2.49-2.76-3.69-4.23-1.04-1.24-2.05-2.53-3.03-3.9-7-.87-13.86,1.29-20.31,4.52-1.05.52-2.09,1.08-3.12,1.66-4.08,2.28-7.97,4.89-11.59,7.29-.46.3-.88.59-1.29.88-.88.61-1.66,1.18-2.39,1.73h-.01s-.01.02-.02.02c-2.89,2.16-5.04,3.93-9.76,6.35-.1.05-.33.7-.77,1.23h-.01c-.42.53-1.05.94-1.92.57.22,3.01-10.87,11.05-13.91,13.47-8.77,6.96-19.81,12.41-28.29,18.86-1.4,1.06-3.46,3.1-5.68,5.45h0c-5.09,5.35-11.01,12.23-11.84,12.51-4.11,1.43-11.66-1.14-16.16-.9-2.03.11-4.05.25-6.06.43h-.02c-6.4.55-12.7,1.37-19,2.22-4.79.64-9.58,1.3-14.43,1.84-2.86.33-5.11.72-7.64-.9-7.54,5.43-22.01,6.61-32.93,10.11-5.21-21.73-4.21-44.54-2.14-66.68,1.39-14.72,13.19-60.97,12.58-68.7-.14-1.78-8.61-18.4-9.88-22.45-1.15-3.65-2.21-7.26-3.22-10.86-.5-1.79-.98-3.58-1.45-5.37-.47-1.78-.93-3.56-1.37-5.34-2.3-9.25-4.26-18.39-6.14-27.59-.58-2.81-1.15-5.64-1.72-8.47-.79-3.91-1.58-7.84-2.39-11.79-.41-2.04-.84-4.08-1.27-6.13-.42-2-.85-4.02-1.29-6.04,0-.05-.01-.1-.03-.15-.28-1.33-.58-2.68-.88-4.03-6.3-28.31-15.39-53.08-17.96-83.07-1.2-14.07-6.13-58.4,13.02-61.51,1.07-.18,2.18-.26,3.3-.26,16.46,6.05,37.99,25.38,57.36,42.47,16.5,14.55,32.39,29.89,48.82,44.56.01,0,.02,0,.03.02.04.04.09.08.13.12l.02.02c14.4,12.86,29.24,25.21,45.3,36.1,3.4-.34,7.51-.38,11.92-.31,1.97.84,3.96,1.55,5.99,2.11-.06,0,.11.77-.02,1.3.14-.53-.03-1.29.03-1.3,11.76-2.15,28.98-.95,41.3-1.8h.01c7.05-.48,13.05-1.58,20.65-1.79h0c1.07-.04,2.09-.07,3.07-.09h.1c1.01.02,2.06.05,3.16.08,7.6.21,13.61,1.31,20.66,1.8.31.02.63.04.95.06,5.87.35,12.74.29,19.59.35h.01c7.42.07,14.79.3,20.76,1.39,2.02-.56,4.01-1.27,5.97-2.11,4.41-.07,8.54-.03,11.94.31,34.47-23.37,63.29-53.46,94.3-80.82,19.37-17.09,40.9-36.42,57.36-42.47h.01c1.12,0,2.22.08,3.29.26,5.56.9,9.09,5.28,11.28,11.39t.01.02h0c3.76,10.58,3.49,26.3,2.71,38.11Z"/>
      <g id="Objeto_generativo" data-name="Objeto generativo">
        <path class="cls-21" d="M429.1,604.85c-24.28,11.18-47.23,25.17-68.11,41.81-5.75,4.57-11.34,9.35-16.76,14.32-13.28,12.19-58.22,60.37-60.61,75.44-.17,1.03-1.2,1.51-1.8,2.24,12.22,6.62,24.81,12.88,36.82,20.21-4.67,14.24-6.44,30.52-6.4,45.82-2.51-.6-5.01-1.23-7.5-1.88-18-4.69-35.5-10.58-52.44-17.58-.75-.31-1.5-.62-2.25-.95-26.23-11.01-51.06-24.69-74.15-40.7.11-4.32.34-8.66.68-13.03.17-2.09.36-4.18.57-6.27.24-2.33.51-4.68.82-7.02.41-3.15.88-6.3,1.41-9.47.55-3.32,1.17-6.65,1.86-9.99,10.48-23.56,19.81-80.1,34.12-98.78.4-.53.98-1.16,1.7-1.86.1-.11.21-.21.32-.31.1-.11.21-.21.33-.32.22-.21.46-.43.71-.66.25-.22.5-.45.77-.69.26-.24.54-.48.82-.72.56-.49,1.16-.99,1.78-1.51.16-.13.32-.26.47-.39,6.99-5.77,16.88-12.97,20.94-16h.01c1.87,1.09,4.28,1.42,6.84,1.5,5.99.18,12.82-.99,15.61,2.99h-.01c-5.38,4.58-10.56,9.36-15.6,14.27-.63.61-1.25,1.23-1.88,1.85-.81.79-1.61,1.59-2.4,2.39-6.39,6.4-12.58,13-18.73,19.67-4.8,7.12-11.24,13.33-16.18,20.39-.64.92-1.26,1.85-1.85,2.81-1.16,1.9-2.2,3.87-3.06,5.95,0,.01-.01.02-.01.03,3.32-4.05,6.55-8.18,9.78-12.33,1.3-1.67,2.59-3.33,3.89-4.99,1.3-1.65,2.59-3.3,3.9-4.95,2.67-3.35,5.38-6.67,8.16-9.92,1.31-1.53,2.65-3.05,4.01-4.55.7-.78,1.41-1.55,2.13-2.32.07-.07.14-.15.22-.23.15-.16.32-.34.51-.53.1-.1.2-.21.3-.31.1-.11.21-.22.32-.33.23-.23.47-.48.73-.74.13-.13.26-.27.4-.4.69-.7,1.47-1.47,2.33-2.32.17-.17.34-.35.52-.52.54-.53,1.1-1.08,1.68-1.65.39-.38.79-.77,1.19-1.16.2-.2.41-.4.62-.6.41-.4.83-.81,1.26-1.22.22-.21.43-.42.65-.63.43-.41.87-.84,1.31-1.26.07-.06.13-.12.2-.19.38-.36.76-.72,1.14-1.09.45-.43.91-.86,1.36-1.29.23-.22.46-.43.69-.65.45-.43.91-.86,1.37-1.29,7.33-6.86,14.6-13.27,16.43-13.68,4.77-1.06,16.99-.36,22.45,0-12.5,13.69-29.24,37.42-43.44,61.9-13.12,22.64-24.07,45.91-27.5,62.48-.14.64-.87,2.5-.28,3.04.15.13.38.18.73.1,2.5-7.11,5.19-14.26,8.09-21.41.57-1.43,1.16-2.86,1.75-4.28.55-1.31,1.1-2.62,1.66-3.93.66-1.55,1.33-3.1,2.01-4.64.59-1.35,1.2-2.71,1.81-4.06.67-1.49,1.35-2.98,2.04-4.46.66-1.42,1.33-2.84,2.01-4.25.67-1.41,1.36-2.82,2.05-4.22.63-1.3,1.28-2.59,1.93-3.87.08-.17.17-.34.26-.51.42-.84.85-1.67,1.29-2.51.7-1.38,1.42-2.75,2.15-4.12.34-.64.68-1.29,1.03-1.93.44-.83.9-1.67,1.36-2.5.67-1.24,1.36-2.47,2.05-3.7.43-.77.87-1.54,1.31-2.31.77-1.35,1.55-2.69,2.34-4.02.49-.85.99-1.69,1.51-2.53.22-.39.46-.78.69-1.17.68-1.12,1.37-2.24,2.07-3.36.12-.2.24-.4.38-.6.76-1.24,1.54-2.47,2.33-3.69.01-.02.02-.04.04-.06.84-1.31,1.69-2.61,2.55-3.9.79-1.2,1.59-2.38,2.4-3.56.12-.2.26-.39.4-.59.67-.98,1.35-1.96,2.05-2.94.24-.35.49-.71.74-1.06.74-1.04,1.48-2.07,2.23-3.09.08-.12.16-.24.26-.35.88-1.21,1.77-2.42,2.68-3.61.83-1.1,1.66-2.19,2.51-3.27.24-.31.48-.62.73-.93.61-.79,1.23-1.57,1.87-2.34.33-.43.68-.87,1.05-1.3.76-.94,1.53-1.88,2.32-2.81.08-.11.17-.21.26-.32.95-1.13,1.91-2.25,2.88-3.36,1-1.15,2.01-2.29,3.04-3.42.98-1.11,2-2.21,3.04-3.3.01-.02.03-.04.05-.06.57-.63,1.17-1.25,1.76-1.87h.01s44.9-8.99,44.9-8.99c.07.06.72.71.9.9.89.96,3.62,3.81,3.59,4.94-.05,1.72-14.92,22.21-19.62,29.69-.44.7-.8,1.29-1.04,1.74-9.49,17.58-17.38,36.34-23.8,55.23,8.8-18.44,16.28-37.81,26.01-55.84,5.61-10.42,11.98-20.39,19.79-29.47,21.3,21.58,51.01,28.31,80.38,30.08Z"/>
        <path class="cls-7" d="M615.89,546.93c.06-.36.04-.69-.05-.99-.02-.07-.04-.13-.07-.2-.03-.08-.06-.16-.1-.23-.1-.21-.24-.4-.4-.57-.06-.07-.13-.14-.21-.21-.64-.58-1.51-1-2.24-1.36-.02-.01-.05-.02-.07-.03-.86-.43-1.72-.85-2.59-1.26-.87-.42-1.73-.83-2.61-1.23-.52-.25-1.03-.48-1.55-.71-.95-.43-1.9-.86-2.85-1.28-1.47-.64-2.94-1.27-4.43-1.88-.4-.17-.79-.33-1.19-.49-1.25-.52-2.51-1.02-3.77-1.51-.98-.38-1.96-.75-2.95-1.13-.1-.03-.2-.07-.3-.11-1.09-.4-2.18-.8-3.27-1.19-.55-.19-1.09-.39-1.64-.58-.55-.2-1.1-.39-1.65-.57-1.1-.38-2.2-.75-3.31-1.11-.55-.19-1.1-.37-1.66-.54-.55-.18-1.11-.35-1.66-.53-.56-.18-1.13-.36-1.7-.53-.58-.18-1.15-.35-1.73-.53-.48-.14-.96-.28-1.44-.42-3.95-1.18-7.93-2.26-11.93-3.26-1.86-.46-3.72-.91-5.59-1.34-.82-.19-1.64-.38-2.46-.56-1.79-.39-3.57-.78-5.36-1.14-.87-.18-1.74-.36-2.61-.52-.87-.18-1.73-.34-2.6-.5-3.48-.65-6.95-1.24-10.42-1.78l.45,8.53c.72.13,1.44.27,2.16.42.31.06.63.13.95.2.35.07.7.14,1.04.22.56.12,1.12.24,1.68.38,3.29.75,6.54,1.61,9.78,2.57.85.25,1.71.5,2.56.77,1.14.35,2.27.71,3.4,1.08,1.18.38,2.34.77,3.51,1.17,1.17.4,2.34.8,3.51,1.22,1.03.36,2.05.73,3.08,1.11,1.03.37,2.05.75,3.08,1.13l3.06,1.14c1.02.39,2.03.77,3.05,1.16,6.68,2.55,14.21,5.11,20.65,8.09.34.16.69.32,1.04.49.27.14.55.28.82.42,3.99,2.03,8.04,4.66,11.84,7.07.53.34,1.05.67,1.57,1-.14.2.14.69,0,.9-.68-.34-1.37-.69-2.05-1.03h0c-2.64-1.34-5.28-2.68-7.94-3.97-.48-.24-.96-.47-1.44-.7-1.32-.64-2.65-1.27-3.99-1.88-.87-.4-1.74-.79-2.61-1.17-.87-.39-1.75-.76-2.63-1.13-5.77-2.41-12.7-6.38-18.85-7.19l-8.68-2.93-28.59-9.64c-6.81,11.27-.73,9.17,6.73,12.57,3.97,1.81,8.02,3.54,12.06,5.29,1.45.63,2.9,1.26,4.35,1.91.74.32,1.48.65,2.22.99.55.24,1.1.49,1.65.75.5.23.99.46,1.49.69.03.01.06.02.09.04,2.02.94,4.02,1.9,5.98,2.91,3,1.53,6.01,3.76,8.98,5.38-2.16.36-4.12,1.38-6.28,1.8,2.03-3.31-4.55-5.65-7.19-7.18-.32-.18-.82-.45-1.49-.79-.1-.05-.21-.11-.32-.16-.11-.06-.23-.12-.35-.18-.11-.06-.23-.12-.36-.18-.13-.06-.26-.12-.39-.19-1.06-.52-2.32-1.13-3.73-1.8-.18-.08-.35-.17-.53-.25-1.8-.85-3.8-1.78-5.86-2.73-.3-.14-.59-.27-.89-.41-.34-.15-.68-.3-1.02-.46-1.9-.87-3.81-1.72-5.65-2.53-.3-.13-.6-.26-.9-.4-.11-.04-.21-.09-.31-.13-.4-.17-.8-.34-1.18-.51-.59-.26-1.16-.5-1.71-.73-.36-.15-.71-.3-1.05-.44-.49-.21-.97-.41-1.42-.59-.31-.13-.61-.25-.9-.36-.17-.07-.33-.14-.49-.2-.33-.13-.64-.25-.93-.36-1.77-.67-2.98-1.05-3.3-.97-.38.09-4.12,6.35-4.04,6.73.25,1.25,19.59,10.6,22.45,12.13,2.31,1.22,7.13,3.11,8.08,5.38-.26.07-.69-.64-3.59,0-2.52-2.04-5.31-3.71-8.08-5.38-2.36-1.43-17.94-10.15-19.31-9.88-10.02,1.97,6.95,12.68,9.43,14.37,2.06,1.39,4.07,4.26,4.49,4.49.54,3.1-1.04,2.45-3.14,3.59-93.45,50.51-106.85,136.78-117.2,235.74-.17,1.6-.37,5.18-.6,9.87-3.23.07-6.47.11-9.72.11-2.64,0-5.27-.02-7.89-.08-1.08-.02-2.16-.04-3.24-.07-6.61-10.51-52.23-54.67-59.37-59.68.52-1.61,1.06-3.2,1.63-4.79.25-.7.5-1.39.76-2.09,3.62-9.67,8.16-19,13.36-28,.41-.71.83-1.43,1.25-2.14,1.26-2.13,2.56-4.24,3.89-6.33.38-.6.77-1.2,1.15-1.8.52-.79,1.03-1.57,1.55-2.36.49-.74.98-1.47,1.48-2.2.49-.73.99-1.46,1.5-2.19.34-.5.69-.99,1.04-1.49.63-.9,1.26-1.79,1.9-2.68.75-1.05,1.51-2.09,2.28-3.13,1.89-2.57,3.83-5.12,5.8-7.64.93-1.18,1.86-2.35,2.79-3.52.62-.77,1.24-1.54,1.87-2.31.72-.9,1.46-1.79,2.19-2.68.57-.69,1.15-1.38,1.73-2.07.52-.63,1.05-1.26,1.58-1.88,1.29-1.53,2.59-3.05,3.9-4.56.58-.66,1.15-1.32,1.73-1.98,1.03-1.18,2.06-2.35,3.1-3.52,1.12-1.26,2.24-2.51,3.37-3.76,1.3-1.45,2.6-2.88,3.91-4.31,18.61-20.34,43.35-45.11,64.66-62.42,2.93-2.38,6.78-3.9,8.98-7.18,2.46-1.6,4.8-2.51,7.18-4.49l48.5-22.9c-1.78-.73-8.72-7.53-9.43-7.64-1.76-.26-5.38,3.22-7.63,4.49l4.49-6.73c-1.81-1.13-8.73-7.19-10.33-6.74-.34.1-2.69,4.3-4.49,5.39-9.56,5.78-20.51,9.02-31.88,8.98-10.56-.04-19.21-3.14-28.74-7.18l-6.7-7.02-12.16-12.74c-.27-1.35-.65-8.61-.9-8.98.26-1.87,2.77-1.82,3.6-2.69,5.55,7.57,11.36,13.77,18.05,18.23,8.28,5.52,17.9,8.36,29.99,7.81,6.86-.32,23.52-6.5,26.94-6.29.61.04,5.93,3.65,6.29,3.59.47-.07,4.23-6.65,6.29-7.18,4.32-1.12,11.96,2.92,12.57,2.69,2.97-1.09,3.04-18.09,3.14-21.1.02-.41,1.82-1.22,1.8-2.24,5.08.94,10.14,1.96,15.19,3.08,1.85.4,3.7.83,5.55,1.26.45.11.89.21,1.33.32.87.21,1.75.42,2.61.64.26.06.51.12.76.19,1.2.3,2.4.61,3.6.92,2.23.58,4.46,1.19,6.68,1.81.9.25,1.8.51,2.7.78,1.44.42,2.87.85,4.3,1.29,1.09.34,2.17.69,3.26,1.03.53.18,1.06.35,1.59.52,1.71.56,3.41,1.14,5.09,1.73,1.11.39,2.22.79,3.32,1.19.88.32,1.75.65,2.62.98,1.5.56,2.98,1.14,4.45,1.73.92.37,1.85.75,2.77,1.13,1.08.45,2.16.91,3.24,1.38,1.02.44,2.04.89,3.06,1.35,1.13.5,2.24,1.02,3.35,1.55,1.07.5,2.12,1.01,3.18,1.53,1.06.51,2.11,1.04,3.15,1.58,1.18.6,2.35,1.21,3.51,1.84-.2.38-.01,1.09-.9,2.7Z"/>
        <path class="cls-20" d="M608.71,714.41c-11.76,23.01-28.9,39.2-48.19,52.93-18.79,13.39-39.63,24.45-59.54,37.23-.63.4-1.26.81-1.89,1.22-9.09,2.07-18.29,3.85-27.61,5.3,4.34-4.68,8.74-9.11,12.85-12.71,2.78-2.44,5.66-4.77,8.62-7,20.55-15.51,45.05-26.58,67.57-40.1,19.61-11.77,37.71-25.39,50.43-45.4,2.29,1.07-1.58,7.25-2.24,8.53Z"/>
        <path class="cls-17" d="M396.87,815.85c-3.21-.09-6.42-.21-9.61-.38-10.77-11.89-27.97-26.76-38.09-35.05-10.74-8.81-18.69-14.32-30.53-21.55-12.01-7.33-24.6-13.59-36.82-20.21.6-.73,1.63-1.21,1.8-2.24,19.73,2.24,37.66,8.39,53.88,19.75,7.14,5.01,52.76,49.17,59.37,59.68Z"/>
        <path class="cls-7" d="M349.17,780.42c-10.27,1.13-20.38,5.65-26.94,13.92-2.62,3.31-3.98,7.61-5.91,11.31-1.36-.31-2.72-.63-4.08-.96-.04-15.3,1.73-31.58,6.4-45.82,11.84,7.23,19.79,12.74,30.53,21.55Z"/>
        <path class="cls-9" d="M568.75,603.51c1.17-.03,2.25,2.09,2.25,2.25-.16,3.65-43.65,47.72-49.84,53.43,6.87-5.45,43.94-55.58,47.6-55.68Z"/>
        <path class="cls-6" d="M582.22,585.54l3.14,4.04-13.02,14.82c-6.54-.01,8.66-16.36,9.88-18.86Z"/>
        <path class="cls-20" d="M377.91,567.58c7.44,27.58,46.45,37.26,69.15,23.35,8.94-5.48,15.23-12.98,19.76-22.45.29.06.61-.05.9,0,5.2.86,9.53,1.07,14.82.9,3.15-.1,12.49-4.61,12.12,0-3.69,3.26-7.9,11.38-12.57,15.27-2.38,1.98-4.73,2.89-7.18,4.49-.55.36-13.33,5.78-8.98,7.18-21.31,17.31-46.05,42.08-64.66,62.41-25.95,28.36-51.85,60.41-63.76,97.44-16.22-11.37-34.15-17.51-53.88-19.76,2.39-15.06,47.33-63.25,60.62-75.44,25.11-23.04,53.89-41.87,84.87-56.13-29.36-1.77-59.08-8.51-80.38-30.08-21.32,24.8-31.92,56.21-45.8,85.31,6.41-18.89,14.31-37.65,23.8-55.23,2.8-5.19,20.6-29.55,20.66-31.43.03-1.14-2.69-3.98-3.59-4.94,6.86-2.31,9.1-.72,14.37-7.18l-3.59,5.84c.99,2.6,19.62,1.1,23.35.45Z"/>
        <g>
          <path class="cls-39" d="M510.82,254.17c-6.55,10.63-14.02,27.15-17.96,39.06-3.83,11.57-4.65,24.09-8.98,35.47-3.08-11.27-8.36-21.95-9.88-33.67-2.41,2-4.84,10.6-5.39,13.47-.11.57-.21,1.13-.29,1.7-.22,1.35-.39,2.69-.52,4.03-.01.09-.02.17-.02.26-1,11.39,1.22,22.53,3.79,33.69h0c.31,1.34.62,2.66.93,3.99.82,3.54,1.66,7.09,2.4,10.66-.24.18-.49.37-.73.57-2.29,1.79-4.51,3.97-6.61,6.45-.78.91-1.54,1.86-2.28,2.85-.75.99-1.48,2.01-2.18,3.07-.71,1.05-1.39,2.14-2.06,3.25-.33.56-.66,1.12-.98,1.7-1.28,2.28-2.47,4.66-3.56,7.12-1.35,3.06-2.53,6.23-3.5,9.45-2.66,8.82-3.77,17.96-2.58,26.06.13.88.29,1.75.47,2.6.37,1.71.85,3.36,1.44,4.94.75,1.98,1.68,3.85,2.81,5.58l-4.49,2.69c-10.11-6.71-22.35-15.04-35.02-13.47-.17.02-.35.05-.52.08-.17.03-.34.06-.52.09-.34.06-.69.14-1.05.23-.71.17-1.43.39-2.17.66-.04.01-.08.03-.12.04-.33.12-.67.24-1,.38-.32.12-.65.25-.97.4-.06.02-.11.05-.16.07-.61.26-1.23.55-1.85.87-.15.07-.3.15-.45.23-.39.19-.77.4-1.16.61-.15.08-.29.16-.43.24-.01.01-.02.01-.03.02-.54.3-1.09.61-1.63.94-.56.33-1.12.67-1.67,1.03-2.61,1.64-5.24,3.5-7.78,5.4-.39.28-.77.57-1.15.85-1.13.86-2.24,1.71-3.33,2.55-.44.33-.87.67-1.3,1-.83.65-1.65,1.28-2.44,1.9-.41.31-.81.62-1.2.92-.54.41-1.06.81-1.57,1.2-.26.19-.52.38-.77.57-.18.13-.35.26-.52.39-.42.31-.83.6-1.23.89h-.01s0,.01,0,.02c-.12.08-.26.17-.4.26-2.22,1.4-6.16,2.86-6.77,3.31.83-2.05,1.79-3.95,2.67-5.87.4-.87.78-1.74,1.12-2.63.07-.18.14-.36.2-.54.19-.49.36-.99.5-1.49.06-.15.1-.3.14-.45.16-.55.29-1.1.4-1.67.23-1.12.35-2.28.36-3.51h0c.28-.37.56-.74.83-1.1.27-.37.53-.74.79-1.11.52-.74,1-1.5,1.46-2.26.51-.84.98-1.69,1.41-2.55.71-1.37,1.33-2.76,1.86-4.18.14-.36.28-.73.4-1.09.22-.59.41-1.18.59-1.78.04-.13.08-.26.12-.39.23-.79.44-1.58.62-2.38.07-.25.12-.5.17-.75.09-.4.17-.81.25-1.22.26-1.39.46-2.79.58-4.19.03-.36.07-.71.09-1.07.01-.07.01-.14.01-.22.07-1.05.11-2.12.11-3.18v-.05c0-.53,0-1.05-.03-1.58-.03-1.09-.1-2.17-.21-3.26-.05-.54-.11-1.09-.18-1.63-.11-.9-.25-1.8-.41-2.7-.05-.29-.11-.59-.17-.88-.08-.45-.17-.89-.27-1.33-.11-.47-.21-.93-.33-1.39-.22-.94-.48-1.86-.76-2.78-.09-.31-.18-.61-.28-.92-.13-.42-.26-.83-.41-1.25-.35-1.05-.74-2.09-1.16-3.12-.42-1.03-.86-2.06-1.33-3.07-.23-.5-.47-1-.73-1.5-.24-.5-.5-1-.77-1.49-.25-.49-.52-.98-.8-1.47-.55-.98-1.13-1.94-1.73-2.88-.6-.94-1.22-1.86-1.87-2.77-.52-.73-1.05-1.45-1.61-2.15-.21-.29-.44-.57-.67-.85-.69-.86-1.4-1.71-2.15-2.53-.16-.19-.33-.37-.51-.56-.48-.53-.98-1.06-1.49-1.58-.7-.71-1.41-1.4-2.15-2.07-.89-.82-1.8-1.61-2.74-2.37,1.39-6.53,2.77-12.91,3.86-19.22.41-2.37.78-4.74,1.09-7.1.03-.23.06-.46.09-.69.44-3.34.76-6.68.93-10.03,0-.09.01-.18.01-.27.16-3.21.18-6.43.03-9.67-.07-1.51-.18-3.02-.33-4.53-.3-3.03-.76-6.09-1.42-9.17-.43-2.06-.95-4.13-1.57-6.22l-14.37,46.25c-.61-30.01-15.25-58.54-32.33-82.62,5.3-2.81,10.68-4.08,16.3-5.19,1.88-.37,3.78-.72,5.71-1.1.09-.02.17-.06.23-.12.01,0,.01-.01.01-.02.06-.05.1-.11.12-.18.01,0,.02-.02.02-.03.02-.05.03-.09.04-.14.14-.53-.03-1.29.03-1.3,11.76-2.15,28.98-.95,41.3-1.8h0c.1.45.19.9.26,1.35.72,4.38.13,8.57-.88,12.65-.08.37-.18.75-.28,1.12-.21.82-.44,1.63-.67,2.43-.2.69-.4,1.37-.6,2.05-.03.11-.07.22-.1.33-.12.44-.25.87-.38,1.3-.27.93-.53,1.85-.77,2.76-.03.1-.05.2-.08.3-.42,1.65-.77,3.28-.99,4.9-2.19,16.22,4.29,33.02,11.95,48.78,0,.01.01.01.01.01.66,1.36,1.33,2.71,2,4.06t.01.01c.34.67.67,1.34,1.01,2.01.51,1.01,1.02,2,1.53,3,.51.99,1.02,1.98,1.52,2.96,1.51,2.95,2.99,5.84,4.39,8.66.31.63.62,1.25.92,1.87.15.31.3.62.45.93,2.66-20.63-10.51-42.33-9.43-62.41.28-5.11,1.86-10.68,3.74-16.35.15-.44.29-.88.44-1.32,2.66-7.88,5.74-15.92,6.6-23.19h0c1.07-.04,2.09-.07,3.07-.09h.1c8.93-.23,14.85-.25,24.67.08h0c0,.6.05,1.19.09,1.78,0,.03,0,.06.01.08,0,.02,0,.04.01.06.02.29.05.59.09.88.03.27.06.53.1.81.04.25.08.5.12.76.04.26.09.52.14.79.19,1.02.42,2.05.69,3.08.1.36.19.72.3,1.08.1.36.2.72.31,1.08s.22.72.33,1.08c.24.76.5,1.51.76,2.27.2.57.4,1.14.61,1.71.82,2.28,1.7,4.55,2.53,6.79.14.35.27.7.4,1.05.05.14.1.28.15.42.14.37.27.74.4,1.11.2.55.39,1.09.57,1.63.12.35.24.69.35,1.04.47,1.45.89,2.88,1.23,4.27.07.26.13.53.18.79.03.12.05.24.08.35.11.51.2,1.01.28,1.51.06.36.11.71.15,1.06,2.83,23.03-10.02,43.32-7.84,66.01.06.59.13,1.18.21,1.77v.02c.36-.91.73-1.83,1.12-2.75.65-1.55,1.34-3.12,2.06-4.72.29-.64.59-1.28.88-1.92.3-.65.6-1.3.9-1.95.76-1.63,1.54-3.28,2.33-4.95.48-1,.96-2.01,1.43-3.02.48-1.01.96-2.03,1.44-3.05.64-1.36,1.27-2.73,1.9-4.11.15-.34.31-.69.47-1.03,1.4-3.11,2.76-6.24,4-9.39.7-1.74,1.35-3.49,1.96-5.24.37-1.05.72-2.1,1.05-3.15,2.43-7.66,3.86-15.26,3.36-22.52-.02-.3-.05-.6-.08-.91-.06-.6-.14-1.2-.22-1.81-.4-2.71-1.07-5.42-1.82-8.14-.09-.3-.17-.6-.25-.91-.17-.6-.34-1.21-.51-1.81-.34-1.21-.68-2.42-1-3.64-.56-2.13-1.06-4.26-1.41-6.41-.5-3.18-.67-6.39-.16-9.64.01-.14.04-.27.06-.41,7.69.42,17.77-.18,26.67-.31,4.41-.07,8.54-.03,11.94.31,6.28.62,13.1,3.83,18.86,6.29Z"/>
          <path class="cls-33" d="M347.38,350.71c-2.65,4.11-17.86-15.5-20.21-17.52-5.62-4.83-34.33-24.38-40.41-23.35-.17.03-1.8,1.34-.9,1.8,21.91,6.27,40.09,20.78,54.33,38.17-24.3,1.96-47.14,13.19-65.55,28.74l6.28,8.53c-48.86,4.92-41.78,24.71-66.45,54.33-7.5,8.99-10.6,12.34-21.56,4.94,1.39-14.72,13.19-60.97,12.58-68.7-.14-1.78-8.61-18.4-9.88-22.45-9.18-29.18-13.2-56.32-19.76-85.77,6.25,15.42,13.86,30.35,23.35,44.01-2.5-.22-2.84,4.98-2.69,5.83.51,3.09,12.32,31.49,14.37,34.13,1.14,1.47,2.83,2.6,4.04,4.04l9.43-14.37c4.82-.47-5.99-5.36-4.94-8.98,2.24,1.68,7.73,9.03,8.53,5.39,2.93-1.13,3.84-4.33,5.39-6.29.96-1.21.83-1.71.89-1.79,1.37-1.77,2.43-3.82,3.6-5.39.81-1.09,1.43-2.22,1.79-2.69,1.26-1.65,3.01-3.38,4.49-5.39.25-.34.65-1.46.9-1.8,1.73-2.35,3.61-4.86,5.39-7.18.67-.89,2.37-1.99,3.59-3.6,1-1.3,1.64-1.73,2.7-3.59.08-.15,2.23-.2,2.69-2.24l-18.86-11.23c4.35-2.75,19.04,9.98,20.21,9.88.84-.07,4.88-5.37,5.83-6.29,1.27-1.21.83-1.72.9-1.79,3.19-3.02,6.47-6.21,9.88-8.98.84-.68,1.62-1.66,1.8-1.8,4.22-3.16,10.36-4.11,13.47-8.98,1.8,1.4,4.91,3.34,6.28,4.49,21.82,21.12,38.93,46.95,48.5,75.89Z"/>
          <path class="cls-6" d="M544.05,273.02c9.83,7.65,17.51,18.34,27.84,26.94.51,5.03,5.63,7.02,8.98,9.88,1.51,1.29.29,3.44,4.49,3.59-3.64,3.85-1.06,4.79,3.59,1.8-3.59,5.4.04,5.43,2.69,8.98.13.17-2.17,3.7,1.8,1.8-.93,3.04,1.58,6.35,4.49,5.39-.47,2.22,1.99,3.5,2.69,4.49,2.91,4.12,5.94,8.22,8.53,12.57,2.2.66,3.01-2.32,4.04-3.59,6.86.78,8.66,9.11,14.37,1.8-1.65,4.12-10.02,17.47-9.88,20.21,11.53,26.14,16.6,54.78,17.96,83.07-29.02-19.51-29.64-65.51-73.64-64.66,7.15-6.33-10-15.46-15.72-18.86-14.22-8.45-30.62-14.54-47.15-15.72,14.59-14.59,35.77-24.84,56.13-28.29,7.14-1.21,16.87.63,22.45-2.69-21.21-.2-44.73,4.97-62.86,16.16-4.39,2.71-18.49,16.77-19.76,17.06-7.53,1.74-2.04-8.87-.45-13.02,9.01-23.46,29.91-51.17,49.39-66.9Z"/>
          <path class="cls-6" d="M635.65,478.68c-.53,7.83-.93,14.73-2.69,22.45-9.88-3.32-19.56-7.79-28.29-13.47-6.62-4.31-26.83-24.86-29.64-26.04-7.14-3-20.21,2.28-27.84,3.59-5.56.96-22-1.98-18.41,6.74,3.03,7.35,21.49,4.55,28.29,5.84,18.78,3.56,20.77,16.51,32.78,25.15-2.53,1.62-4.77,1.22-7.63.9-13.24-1.5-26.09-3.77-39.51-4.49-4.5-.24-12.05,2.33-16.16.9-1.18-.41-12.94-14.49-17.51-17.96l7.63-12.57c-17.62-1.87-36.73-8.27-48.94-20.66,1.01-4.24,3.53-10.17,6.29-13.47,1.57,2.8,1.75,13.16,4.94,14.37,2.4.91,25.5-.33,29.64-.9,25.63-3.52,51.66-21.14,58.82-46.7,29.55,9.21,37.76,63.13,68.25,76.33Z"/>
          <path class="cls-19" d="M298.88,482.27c-5.65,4.4-13.65,2.92-20.21,6.29-.33.18-.65.35-.96.54-.28.17-.54.34-.8.52-.06.03-.12.07-.17.12-.26.18-.51.37-.75.57-.53.42-1.02.87-1.47,1.34-1.55,1.6-2.69,3.39-3.71,5.12-.05.08-.09.16-.14.24-.11.2-.23.4-.34.6-.35.59-.68,1.17-1.01,1.73-.08.14-.16.28-.25.42-.1.16-.21.33-.32.49-.09.15-.19.29-.29.44-.09.14-.19.28-.29.42-.09.11-.17.22-.25.32-.11.14-.21.28-.32.41-.09.11-.18.21-.27.31-.13.15-.26.29-.41.43-.12.12-.25.23-.37.34-.07.06-.15.13-.22.19-.06.05-.12.1-.18.14-.15.12-.3.22-.45.32-.3.22-.6.4-.92.55-.18.1-.36.18-.54.26-.11.06-.23.11-.35.15-.23.1-.47.18-.71.26s-.48.15-.72.22c-.25.07-.49.13-.74.18-2.23.5-4.6.64-6.84,1.33-18.9,5.78-38.42,9.61-56.13,18.86-1.25-3.42-2.31-6.87-3.21-10.35-.17-.67-.33-1.33-.49-2-5.21-21.73-4.21-44.54-2.14-66.68,10.96,7.4,14.06,4.05,21.56-4.94,24.67-29.62,17.59-49.41,66.45-54.33.43-.05,3,1.22,5.39.89h0c.96,2.5,1.01,5.82,1.34,8.45.11.87.25,1.67.46,2.33h-.01c-2.22-.18-4.02-.08-5.56.22-.5.09-.97.21-1.43.35-.15.04-.29.08-.44.14-1.9.63-3.43,1.57-5.05,2.58-.25.15-.5.31-.76.47-.21.13-.42.26-.64.38-.71.43-1.46.85-2.28,1.25-7.01,3.43-10.39,5.41-16.17,10.78h0c-.44.42-.88.85-1.32,1.28-4.38,4.35-8.29,9.58-11.98,15.21-.37.56-.74,1.13-1.11,1.71-1.08,1.71-2.16,3.45-3.22,5.2t-.01.01c-2.12,3.52-4.21,7.1-6.3,10.64,0,0-.01,0-.01.01-1.74,2.96-3.49,5.88-5.28,8.72h0c-1.07,1.71-2.16,3.38-3.27,5.01h-.01c-.73,1.09-1.48,2.16-2.24,3.19-.39.53-.77,1.05-1.16,1.56-.18.24-.37.48-.56.72-.39.47-.79.94-1.21,1.4h-.01c-.42.47-.85.93-1.3,1.39-1.68,1.72-3.52,3.4-5.3,5.08-.36.34-.72.68-1.08,1.02-.46.45-.92.89-1.37,1.35-.23.22-.45.45-.67.68-4.88,5.07-8.07,10.38-3.76,17.09,1.44,2.24,3.15,3.83,5.04,4.88.42.24.85.45,1.29.64.27.11.54.22.81.31.77.26,1.57.46,2.39.6.08.01.16.02.24.03,8.22,1.21,18.15-3.96,24.8-7.81,1.22-.71,2.39-1.45,3.52-2.21.23-.16.46-.31.68-.47.88-.62,1.73-1.26,2.57-1.89.22-.17.43-.33.63-.5.41-.32.81-.64,1.21-.97.21-.16.41-.33.61-.5.39-.33.78-.65,1.17-.98,1.57-1.32,3.07-2.66,4.54-3.95.37-.33.73-.64,1.1-.96,4.78-4.16,9.46-7.87,15.44-9.81.91-.29,1.86-.55,2.84-.75,3.23-.68,6.85-.86,11.03-.36h.02c.44.06,2.06.44,4.01.95.17.05.36.09.54.14.55.14,1.11.29,1.68.45,3.23.86,6.52,1.82,6.78,2.06h0c.14.13.27.26.38.39,0,0-.01,0,0,.01.36.4.59.81.74,1.22h0c.05.14.09.28.13.41h0c.04.15.07.28.09.42h0c.02.14.03.27.05.41.12,1.68-.58,3.3-.05,4.32Z"/>
          <path class="cls-2" d="M562.01,385.28c44-.85,44.62,45.15,73.64,64.66.48,9.95.68,18.77,0,28.74-30.49-13.21-38.7-67.13-68.25-76.33-3.09-.96-6.79.18-8.98-1.35,2.42-.92,10-.32,10.33-4.04l-16.61,1.35,9.43-6.74c-3.46.27-10.41,1.21-12.12,4.49,0-.83-1.28-6.85-1.8-8.08,4.28-.65,10.2-2.61,14.37-2.69Z"/>
          <path class="cls-2" d="M632.96,501.13c-.43,1.9-3.17,14.02-4.04,14.37-10.88-5.66-29.99-6.05-39.07-12.57-12.01-8.63-14-21.59-32.78-25.15-6.8-1.29-25.26,1.52-28.29-5.84-3.59-8.71,12.85-5.78,18.41-6.74,7.63-1.31,20.7-6.6,27.84-3.59,2.8,1.18,23.02,21.73,29.64,26.04,8.73,5.68,18.41,10.15,28.29,13.47Z"/>
          <path class="cls-6" d="M595.24,507.41l27.84,25.15c-1.65,4.11-4.26,7.79-6.29,11.67-26.47-14.25-55.76-22.35-85.31-27.84-.04-1.9-4.41-14.86-3.14-15.27,22.5-.52,44.97,1.56,66.9,6.29Z"/>
          <path class="cls-18" d="M310.56,526.27l2.69,9.88c-27.65,13.44-48.3,21.1-73.64,40.41-5.17-.72-13.73-3.91-17.96,0-.16-.96-1.42-2.47-1.8-3.59-.52-1.56-2.88-4.05-2.69-4.94.75-3.69,51.03-28.28,57.92-30.98,11.28-4.42,23.57-8.36,35.47-10.78Z"/>
          <path class="cls-23" d="M404.4,349.36c-.15-.31-.3-.62-.45-.93-.3-.62-.61-1.24-.92-1.87-1.4-2.82-2.88-5.71-4.39-8.66-.5-.98-1.01-1.97-1.52-2.96-.51-1-1.02-1.99-1.53-3-.34-.67-.67-1.34-1.01-2.01t-.01-.01c-.67-1.35-1.34-2.7-2-4.06,0,0-.01,0-.01-.01-7.66-15.76-14.14-32.55-11.96-48.78.22-1.63.57-3.26,1-4.9.03-.1.05-.2.08-.3.24-.91.5-1.83.77-2.76.13-.43.26-.86.38-1.3.03-.11.07-.22.1-.33.2-.68.4-1.36.6-2.05.23-.8.46-1.61.67-2.43.1-.37.2-.75.28-1.12,1.01-4.08,1.6-8.27.88-12.65-.08-.45-.17-.9-.27-1.35h0c7.05-.48,13.05-1.58,20.65-1.79-.86,7.27-3.94,15.31-6.6,23.19-.15.44-.29.88-.44,1.32-1.88,5.67-3.46,11.24-3.74,16.35-1.08,20.08,12.09,41.78,9.43,62.41Z"/>
          <path class="cls-15" d="M453.35,247.88c-2,11.56,4.63,22.58,5.39,33.68,1.52,22.15-14.9,47.55-22.9,67.8-3.08-23.42,10.54-44.16,7.63-67.8-1.32-10.77-9.67-23.8-9.88-35.47,6.54.22,13.26,1.44,19.76,1.8Z"/>
          <path class="cls-19" d="M265.65,505.62l-5.39,19.76c-12.62,3.89-24.6,9.5-36.82,14.37-5.62,2.24-11.15,4.56-16.61,7.18-1.77-3.06-8.95-18.37-7.18-20.65,18.18-7.82,36.78-13.8,56.12-17.96,3.21-.69,6.63-2.14,9.88-2.7Z"/>
          <path class="cls-18" d="M310.56,523.58c-7.39,2.14-14.68,4.47-21.85,7.01-25.41,8.99-49.48,20.57-72.45,35.2-.95-2.33-9.18-15.67-8.98-16.61,2.61-2.6,7.27-4.2,10.78-4.94,6.15-1.3,12.35-.32,18.41-1.8,6.13-1.49,23.31-9.39,26.49-15.26,9.2-2.74,17.06-5.17,25.22-7.1h0c6.66-1.58,13.53-2.84,21.48-3.68l.9,7.18Z"/>
          <path class="cls-6" d="M615.89,546.93c-2.3,4.18-4.92,6.52-7.18,9.88-4.81-3.03-10.14-6.61-15.27-8.98,3.36-.79-5.49-4.36-5.84-4.49-4.16-1.57-10.38-3.79-14.82-3.59-13.28-5.06-26.79-9.97-40.86-12.57l-.45-8.53c27.72,4.29,56.06,12.19,81.27,24.7,1.42.7,3.46,1.61,3.14,3.59Z"/>
          <path class="cls-6" d="M608.71,557.71c-3.58,5.21-6.28,11.05-11.23,15.27-6.69-5.78-14.28-10.16-22-14.37-2.97-1.62-5.98-3.85-8.98-5.39l21.55-5.39c7.05,2.94,13.84,6.46,20.66,9.88Z"/>
          <path class="cls-42" d="M509.03,482.27c-8.49-6.45-19.52-11.9-28.29-18.86-3.05-2.42-14.14-10.46-13.92-13.47.09-1.19.88-.84.9-.9,12.22,12.38,31.33,18.79,48.94,20.66l-7.63,12.57Z"/>
          <path class="cls-2" d="M623.08,532.56l-27.84-25.15c4.94,1.06,32.86,7.87,33.23,11.23-2.11,4.5-3.54,9.32-5.39,13.92Z"/>
          <path class="cls-19" d="M262.96,527.18c-3.18,5.87-20.36,13.77-26.49,15.26-6.06,1.48-12.26.5-18.41,1.8,1.2-2.38,4.13-2.71,6.28-3.59,12.87-5.29,25.27-9.5,38.62-13.47Z"/>
          <path class="cls-27" d="M239.61,576.56c-8.18,6.24-14.94,14.94-24.25,19.76,2.13-4.29,6.9-16.11,6.29-19.76,4.23-3.91,12.79-.72,17.96,0Z"/>
          <path class="cls-6" d="M584.01,564.89l13.02,9.43-10.33,13.02c-7.77-3.13,2.62-14.12-2.69-22.45Z"/>
          <path class="cls-9" d="M569.19,560.4c-4.57.88-8.93,1.58-13.47,2.69-.96-2.27-5.78-4.16-8.08-5.39l14.37-4.49c2.64,1.54,9.22,3.87,7.18,7.18Z"/>
          <path class="cls-9" d="M552.13,563.09c-4.43.99-8.89,6.05-13.47,3.59-.43-.23-2.43-3.09-4.49-4.49l9.88-4.49c2.77,1.67,5.56,3.35,8.08,5.39Z"/>
          <path class="cls-35" d="M313.25,537.95l4.49,7.18c-19.22,11.78-34.7,21.14-52.09,35.92-3.97-5.68-16.21-.87-22.45-4.49,21.7-16.18,44.54-29.3,70.05-38.62Z"/>
          <path class="cls-35" d="M322.23,549.62c.3.85.92,2.13.9,2.25-.37,1.98-25.07,22.4-29.64,27.39-5.46-.36-17.68-1.06-22.45,0,14.26-12.75,31.23-24.87,48.49-33.23-.1,1.54,2.62,3.38,2.69,3.59Z"/>
          <path class="cls-18" d="M342.89,567.58l-44.9,8.98c7.33-7.63,16.72-16.04,25.15-22.45,5.41,5.67,14.13,8.73,19.76,13.47Z"/>
          <path class="cls-7" d="M569.19,256.86c-9.9,4.77-16.64,9.3-25.15,16.16-19.48,15.74-40.39,43.44-49.39,66.9-1.59,4.15-7.08,14.76.45,13.02,1.27-.29,15.37-14.35,19.76-17.06,18.14-11.2,41.66-16.36,62.86-16.16-5.58,3.32-15.31,1.48-22.45,2.69-20.36,3.45-41.54,13.7-56.13,28.29,16.53,1.17,32.92,7.27,47.15,15.72,5.72,3.4,22.86,12.53,15.72,18.86-4.17.08-10.09,2.04-14.37,2.69-5.05-12.09-28.15-18.61-39.96-17.96-36.81,2.02-39.51,44.38-45.35,71.84-1.38-1.59-4.66-1.52-7.18-5.39-13.37-20.48,1.14-59.72,19.76-73.64,3.2-2.4,11.51-4,15.27-8.53.39-1.27-1.58-5.26-1.8-6.74,6.02-7.27,8.75-17.96,13.47-26.49,8.75-15.8,25.66-38.31,39.51-49.84,14.78-12.3,37.24-23.45,56.13-26.04l-.9,2.69c-9.94-.21-18.73,4.81-27.39,8.98Z"/>
          <path class="cls-2" d="M483.88,328.7c.88,3.22,1.97,6.65,2.69,9.88.66,2.94,1.35,5.99,1.8,8.98.22,1.48,2.19,5.46,1.8,6.74-3.75,4.54-12.06,6.13-15.27,8.53-3.76-18.1-9.85-35.82-6.29-54.33.55-2.88,2.97-11.47,5.39-13.47,1.52,11.72,6.8,22.41,9.88,33.68Z"/>
          <path class="cls-23" d="M365.34,361.03c-12.43-10.07-15.82-.73-11.67-20.66l14.37-46.25c6.79,23.1,2.18,44.07-2.69,66.9Z"/>
          <path class="cls-42" d="M482.08,584.65c4.68-3.89,8.88-12.01,12.57-15.27s13.74-7.9,18.86-10.78c2.26-1.27,5.87-4.76,7.63-4.49.71.11,7.65,6.91,9.43,7.63l-48.49,22.9Z"/>
          <path class="cls-42" d="M569.19,540.64c6.15.81,13.09,4.78,18.86,7.18l-21.55,5.39c-8.99-4.61-18.64-8.38-27.84-12.57,8.25.31,23.06-.98,30.53,0Z"/>
          <path class="cls-6" d="M562.01,553.22l-14.37,4.49c-2.86-1.53-22.2-10.87-22.45-12.12-.08-.39,3.66-6.65,4.04-6.74,1.74-.41,29.25,12.31,32.78,14.37Z"/>
          <path class="cls-6" d="M569.19,540.64c-7.47-.98-22.29.31-30.53,0-7.46-3.4-13.54-1.31-6.74-12.57l37.27,12.57Z"/>
          <path class="cls-6" d="M544.05,557.71l-9.88,4.49c-2.48-1.68-19.45-12.4-9.43-14.37,1.37-.27,16.95,8.45,19.31,9.88Z"/>
          <path class="cls-30" d="M593.44,547.83c-6.44-2.98-13.97-5.54-20.66-8.08,4.44-.2,10.66,2.02,14.82,3.59.34.13,9.19,3.7,5.84,4.49Z"/>
          <path class="cls-42" d="M474.9,589.14c-2.2,3.28-6.05,4.8-8.98,7.18-4.35-1.4,8.43-6.82,8.98-7.18Z"/>
          <path class="cls-7" d="M567.4,402.34c-7.16,25.56-33.19,43.17-58.82,46.7-4.13.57-27.24,1.81-29.64.9-3.19-1.21-3.37-11.56-4.94-14.37,7.15-8.56,13.35-.92,22.9,0,23.26,2.25,52.34-14.3,52.54-39.51,1.72-3.28,8.67-4.22,12.12-4.49l-9.43,6.74,16.61-1.35c-.33,3.72-7.91,3.12-10.33,4.04,2.19,1.53,5.9.39,8.98,1.35Z"/>
          <path class="cls-35" d="M271.94,404.14c8.37,23.22,31.41,42.24,56.13,44.9,3.58.39,27.44.67,29.64,0,2.33-.71,5.85-7.98,7.63-9.88,2.66,4.12,4.42,8.55,7.18,12.57-18.59,13.74-38.22,31.53-54.78,47.6-.3,0-.6,0-.9,0-11.86-.48-6.58-3.41-9.88-7.63-2.29-2.93-5.84-5.13-8.08-9.43-.84-1.6,1.36-4.67-1.35-7.18-.5-.46-11.73-3.44-13.02-3.59-12.7-17.13-26.51-34.56-28.74-56.58,5.77-5.37,9.16-7.35,16.16-10.78Z"/>
          <path class="cls-18" d="M315.05,502.03l-4.49,11.67c-17.08,3.08-33.72,6.57-50.29,11.67l5.39-19.76c15.9-2.71,33.27-4.15,49.39-3.59Z"/>
          <path class="cls-8" d="M316.84,499.33c-16.79.48-33.59,2.41-50.29,3.59,3.8-3.32,4.93-10.68,12.12-14.37,6.56-3.37,14.56-1.89,20.21-6.29,2.24,4.3,5.79,6.5,8.08,9.43,3.29,4.22-1.98,7.16,9.88,7.63Z"/>
          <path class="cls-35" d="M298.88,274.82c-1.45-1.4-4.78-5.89-6.29-7.18,1.1-.46,1.22-.95,2.69-.9,7.33.28,15.67-6.07,22.45-8.98,18.48,24.99,39.15,59.39,30.98,91.6-10.01-29.05-26.31-54.84-49.84-74.54Z"/>
          <path class="cls-32" d="M284.51,471.49c-22.06-2.64-28.39,13.53-45.35,23.35-9.71,5.62-26.41,14.06-34.57,1.35-7.59-11.81,8.09-19.29,15.27-28.74,12.37-16.27,21.57-39.19,35.92-52.54,2.23,22.02,16.03,39.44,28.74,56.58Z"/>
          <path class="cls-7" d="M288.11,398.75c7.73,24.23,26.54,39.86,52.54,37.72,13.23-1.09,16.29-10.35,24.7,2.69-1.79,1.9-5.3,9.17-7.63,9.88-2.2.67-26.06.39-29.64,0-24.72-2.67-47.76-21.69-56.13-44.9,5.39-2.64,7.63-6.09,16.16-5.39Z"/>
          <path class="cls-6" d="M526.09,260.45c1.77.81,3.64,1.82,5.39,2.69.59.3,1.22.6,1.8.9,1.35.69,1.34,3.89,5.39,3.59.3-.02.6.02.9,0l1.8,3.59c-13.85,11.53-30.76,34.04-39.51,49.84-4.72,8.53-7.45,19.22-13.47,26.49-.44-2.99-1.13-6.04-1.8-8.98,1.06-30.35,11.93-57.4,27.84-82.62,3.98,1.08,7.94,2.79,11.67,4.49Z"/>
          <g>
            <path class="cls-7" d="M418.78,538.97c-.33,1.78-.9,3.31-1.81,4.37-9.7,11.25-44.25,18.52-58.82,17.06-3.75-.37-10.64-1.88-13.92-3.59-14.31-7.45-3.07-16.41-21.1-2.69-8.43,6.41-17.82,14.82-25.15,22.45-.59.62-1.19,1.24-1.76,1.87-33.3,35.44-57.22,82.84-73.22,128.35-1.74.38-.62-2.34-.45-3.15,7.14-34.49,46.88-98.04,70.94-124.38.39-.42.91-.95,1.56-1.56,7.01-6.75,27.74-24.01,28.08-25.83.02-.12-.6-1.4-.9-2.24,2.46,2.35,7.49-1.84,9.14-5.26.93-1.93.79-3.61-1.51-3.72-.51-.03-2.34.92-4.35,2.04-2.34,1.31-4.93,2.85-5.97,3.35-13.06,6.31-25.94,14.78-37.61,24.05-3.77,2.99-7.41,6.06-10.89,9.17-3.67.82-29.06,25.64-33.23,30.09-11.46,12.25-21.26,26.1-31.88,39.06,4.58-11.14,14.43-19.27,21.11-29.18,12.29-13.33,24.78-26.41,38.61-38.17,5-4.25,9.84-8.05,14.66-11.59,11.94-8.77,23.73-15.94,37.43-24.33,2.16-1.32,3.36-3.03,3.93-3.52.04-.03.08-.06.11-.08.25-.16,5.2-.47,5.84-1.34.3-.41,2.28-7.67,1.79-8.08-1.26-.93-13.92,5.01-16.16,5.83-2.04.74-4.06,1.51-6.06,2.31-15.56,6.15-30.13,13.73-44.09,22.59-6.77,4.28-13.39,8.86-19.9,13.72-5.91,4.41-24.14,17.62-27.84,22.45-4.81-1.19-.1-2.48,0-2.69,9.31-4.83,16.07-13.53,24.25-19.76,7.14-5.44,13.9-9.96,20.56-13.94,15.01-8.98,29.46-15.23,46.35-23.24,2.2-1.04,4.44-2.12,6.73-3.23,4.56-2.22,12.18-4.92,8.08-12.13-.85-1.49-9.15,1.92-10.77,2.25-7.19,1.46-14.53,3.48-21.69,5.82-4.7,1.53-9.32,3.21-13.79,4.95-6.89,2.7-57.17,27.3-57.92,30.99-.15.75,1.52,2.66,2.34,4.17h.01c.14.28.26.54.34.77-2.85-.03-3.5-2.39-3.61-4.4-.01-.01,0-.02,0-.02-.08-1.37.1-2.57.02-2.77,22.97-14.63,47.04-26.21,72.45-35.2,7.17-2.54,14.46-4.87,21.85-7.01,2.1-.6,18.14-.74,12.57-8.53-1.25-1.75-11.4,1.13-13.47,1.35-7.95.84-14.82,2.1-21.48,3.67h0c-8.16,1.94-16.02,4.37-25.22,7.11-13.35,3.97-25.75,8.18-38.62,13.47l-.9-.9c12.22-4.87,24.2-10.48,36.82-14.37,9.14-2.81,18.31-5.14,27.55-7.17,7.52-1.66,15.09-3.12,22.75-4.5,10.38-1.88,13.2,2.96,17.96-10.33-.72-2.24-11.28-1.27-13.47-1.35-8.25-.28-16.83-.04-25.38.62-8.15.63-16.26,1.65-24.02,2.97-3.25.56-6.67,2.01-9.88,2.7l-.89-1.8c2.24-.69,4.61-.83,6.84-1.33.25-.05.49-.11.74-.18.24-.07.48-.14.72-.22s.48-.16.71-.26c.12-.04.24-.09.35-.15.19-.07.37-.16.54-.26.32-.15.62-.33.92-.55.15-.09.3-.2.45-.32.06-.04.12-.09.18-.14.08-.06.15-.12.22-.18,7.38-.53,14.78-1.2,22.19-1.82,9.36-.79,18.73-1.51,28.1-1.77.3,0,.6.01.9,0,2.95-.1,9.99,2.71,13.02.89.55-.32,6.12-8.78,7.63-10.32,14.01-14.27,29.5-27.15,42.2-42.64t0-.02h.01c.4-.29.81-.58,1.23-.89.17-.13.34-.26.52-.39.25-.19.51-.38.77-.57.51-.39,1.03-.79,1.57-1.2.39-.3.79-.61,1.2-.92.79-.62,1.61-1.25,2.44-1.9.43-.33.86-.67,1.3-1,3.87-2.99,8.08-6.17,12.26-8.8.55-.36,1.11-.7,1.67-1.03.54-.33,1.09-.64,1.63-.94.01-.01.02-.01.03-.02.14-.08.28-.16.43-.24.38-.21.77-.41,1.16-.61.15-.08.3-.16.45-.23.62-.31,1.24-.6,1.85-.87.05-.02.1-.05.16-.07.32-.14.64-.27.97-.4.33-.14.67-.26,1-.38.04-.01.08-.03.12-.04.73-.26,1.46-.48,2.17-.66.35-.09.71-.16,1.05-.23.35-.06.7-.12,1.04-.16-2.13,2.97-4.41,5.59-6.71,8.12-5.92,6.51-11.93,12.38-15.74,21.96-3.58,8.98-3.67,17.97-4.96,26.14-.34,2.12-.75,4.19-1.33,6.19-1.47,5.07-5.16,10.43-8.11,16.11-1.52,2.93-2.85,5.94-3.57,9.04-1.88,8.07-.51,17.17-3.59,24.24.65.56,1.23,1.1,1.75,1.62,4.46,4.38,5.31,7.27,13.97,6.02,6.67-.97,15.03-8.73,21.58-14.87,4.15-3.89,7.58-7.13,9.4-7.58.25-.07.63-.02.9,0-.34,3.95.55,11.15-.44,16.28Z"/>
            <g>
              <path class="cls-28" d="M454.25,491.25c-17.24-3.23-19.62,21.21-32.78,27.84-12.54-7.33-14.6-28.17-31.88-27.84-5.29-8.42,7.07-11.9,13.92-11.67,3.86.12,10.98,3.36,14.37,3.59,5.7.4,47.7-9.16,36.37,8.08Z"/>
              <path class="cls-22" d="M454.25,491.25c-1.58,2.41-12.43,10-16.16,13.92-4.12,4.32-7.61,11.4-11.67,15.72-.83.88-3.34.82-3.59,2.69-.1-.15-3.41-.89-3.59-.9-.27-.01-.65-.06-.9,0-5.52-6.14-9.8-14.14-15.27-20.21-3.75-4.16-11.3-7.77-13.47-11.23,17.28-.33,19.34,20.51,31.88,27.84,13.16-6.63,15.54-31.07,32.78-27.84Z"/>
            </g>
            <path class="cls-30" d="M462.33,441.86c1.41,1.61.92,4.27,1.8,6.29-6.48-3.32-8.11-5.42-13.47-8.98l4.49-2.69c2.53,3.87,5.8,3.8,7.18,5.39Z"/>
            <path class="cls-20" d="M358.15,560.4v.9c-5.27,6.46-7.51,4.88-14.37,7.18-.18-.19-.83-.84-.9-.9-5.62-4.74-14.35-7.8-19.76-13.47,18.03-13.72,6.79-4.76,21.1,2.69,3.28,1.71,10.17,3.22,13.92,3.59Z"/>
            <path class="cls-20" d="M317.74,499.33c16.56-16.07,36.19-33.86,54.78-47.6.78-.57.85-.86.9-.9.65-.48,5.09-2.11,7.18-3.59-12.71,15.5-28.19,28.38-42.21,42.66-1.52,1.55-7.08,10-7.63,10.33-3.03,1.81-10.07-1-13.02-.9Z"/>
            <path class="cls-29" d="M422.81,523.58c.25.37.62,7.63.9,8.98.45,2.23-.13,7.17.9,9.43,1.15,2.54,14.74,8.96,17.96,10.33,9.53,4.04,18.18,7.15,28.74,7.18l-3.59,8.98c-.29-.05-.61.06-.9,0-7.43-1.46-15.13-7.02-22.45-8.98-25.06-21.98-42.71,3.96-66.46,8.08-3.73.65-22.36,2.15-23.35-.45l3.59-5.84v-.9c14.56,1.45,49.12-5.82,58.82-17.06,3.56-4.13,1.78-15.33,2.25-20.66.18,0,3.49.74,3.59.9Z"/>
            <path class="cls-20" d="M513.52,558.6c-5.12,2.88-15.2,7.55-18.86,10.78.37-4.61-8.97-.1-12.12,0-5.29.17-9.62-.04-14.82-.9l3.59-8.98c11.37.04,22.32-3.2,31.88-8.98,1.8-1.09,4.15-5.29,4.49-5.39,1.6-.45,8.52,5.6,10.33,6.74l-4.49,6.74Z"/>
            <path class="cls-20" d="M442.57,552.32c-3.22-1.37-16.81-7.79-17.96-10.33-1.03-2.26-.44-7.2-.9-9.43l18.86,19.76Z"/>
            <path class="cls-20" d="M310.56,513.7l4.49-11.67c2.2.08,12.75-.89,13.47,1.35-4.76,13.29-7.58,8.46-17.96,10.33Z"/>
            <path class="cls-20" d="M317.74,545.13l-4.49-7.18c2.24-.82,14.9-6.76,16.16-5.84.48.42-1.5,7.67-1.8,8.08-.64.88-5.59,1.19-5.84,1.35-.52.33-1.75,2.18-4.04,3.59Z"/>
            <path class="cls-20" d="M310.56,523.58l-.9-7.18c2.07-.22,12.22-3.1,13.47-1.35,5.57,7.79-10.47,7.92-12.57,8.53Z"/>
            <path class="cls-16" d="M313.25,536.15l-2.69-9.88c1.63-.33,9.93-3.74,10.78-2.25,4.1,7.21-3.53,9.91-8.08,12.12Z"/>
            <path class="cls-20" d="M322.23,549.62c-.07-.21-2.8-2.06-2.69-3.59,1.93-.93,9.22-5.44,10.33-5.39,6.36.31-3.78,12.66-7.63,8.98Z"/>
            <path class="cls-7" d="M444.37,559.5c7.32,1.96,15.02,7.52,22.45,8.98-4.52,9.47-10.82,16.97-19.76,22.45-16.28,6.69-64.39-24.51-29.19-33.23,8.57-2.12,19.01-.21,26.49,1.8Z"/>
            <path class="cls-7" d="M444.37,559.5c-7.48-2-17.92-3.92-26.49-1.8-35.2,8.72,12.9,39.92,29.19,33.23-22.7,13.91-61.71,4.23-69.15-23.35,23.75-4.13,41.4-30.07,66.46-8.08Z"/>
          </g>
          <g>
            <path class="cls-26" d="M378.81,434.67c-.03,6.2-3.17,10.71-5.39,16.16-.05.04-.12.32-.9.9-2.77-4.03-4.53-8.45-7.18-12.57-8.41-13.04-11.46-3.78-24.7-2.69-26,2.14-44.81-13.49-52.54-37.72-.85-2.65-.52-7.46-1.8-10.78,4.16-.56,13.3-10.63,20.21-13.47,43.12-17.72,72.48,20.31,72.29,60.17Z"/>
            <g>
              <path class="cls-13" d="M325.82,403.24c-8.44,6.12-12.05-1.16-22.45,5.39-.76.48-3.22-.02-2.69,2.69-6.13-15.36-.27-35.19,19.31-28.74,8.69,2.87,4.61,11.84,5.84,20.66Z"/>
              <path class="cls-13" d="M353.66,426.59c-14.94,10.57-33.15,7.07-45.8-5.39,6.91-4.9,13.19-1.55,20.66-3.59,5.37,12.58,9.25,1.91,12.57-5.39l12.57,14.37Z"/>
              <path class="cls-5" d="M349.17,400.55c3.32.56,11.5,9.31,15.27,10.78-.84,5.51-6.3,12.09-10.78,15.27l-12.57-14.37c.96-2.1,1.19-9.45,2.69-10.78.2-.18,4.85-.99,5.39-.9Z"/>
              <path class="cls-7" d="M353.66,394.26c-.83.89-2.76,5.11-4.49,6.29-.54-.09-5.18.72-5.39.9-17.08-13.4,9.42-33.05,9.88-7.18Z"/>
              <path class="cls-12" d="M303.37,408.63c-2.27,7.79,19.63,2.42,23.35.9.51,2.46.84,5.84,1.8,8.08-7.46,2.04-13.75-1.31-20.66,3.59-4.02-3.96-4.95-4.28-7.18-9.88-.53-2.72,1.93-2.22,2.69-2.69Z"/>
              <path class="cls-34" d="M364.44,411.32c-3.77-1.46-11.94-10.22-15.27-10.78,1.73-1.18,3.66-5.4,4.49-6.29,1.86-1.99,1.77-3.76,4.04-3.59,5.98,5.09,7.92,12.93,6.74,20.66Z"/>
              <path class="cls-4" d="M325.82,403.24c.31,2.22.42,4.01.9,6.29-3.72,1.52-25.61,6.89-23.35-.9,10.4-6.55,14.01.73,22.45-5.39Z"/>
            </g>
          </g>
          <g>
            <path class="cls-20" d="M668.88,183.67c-3.35,28.45-13.03,54.08-19.76,81.27-3.57,6.59-6.89,13.34-10.43,19.97v.02c-2.89,5.44-5.92,10.8-9.33,15.93-8.39,12.63-18.75,23.71-28.73,35.03-.7-.99-3.17-2.28-2.7-4.49,2.87-.95,7.71-9.06,9.88-11.68,29.85-35.98,48.95-96,53.09-145.04.01-.11.02-.21.02-.31.41-4.8.66-9.49.77-14.05.23-9.28,1.37-19.39-3.49-24.08-2.25-2.18-5.79-3.19-11.32-2.41-18.24,2.57-69.14,51.01-83.97,65.55-18.84,18.47-34.24,33.98-48.5,56.58-15.9,25.22-26.78,52.27-27.83,82.62-.73-3.23-1.82-6.66-2.7-9.88,4.33-11.38,5.15-23.9,8.98-35.47,3.94-11.91,11.41-28.43,17.96-39.06,7.04-11.42,22.3-28.35,31.43-39.07,13.98-16.41,30.55-31.17,44.01-48.04,19.37-17.09,40.9-36.42,57.36-42.47h0c19.37-7.12,31.72,4.15,25.25,59.08Z"/>
            <path class="cls-42" d="M627.57,346.66c-5.71,7.32-7.51-1.01-14.37-1.8,7.73-9.53,14.48-32.08,16.16-44,7.57-11.4,13.25-23.93,19.76-35.92-7.08,28.61-10.36,53.84-21.55,81.72Z"/>
            <path class="cls-38" d="M586.26,167.06c-13.46,16.87-30.03,31.63-44.01,48.04-9.13,10.72-24.39,27.65-31.43,39.07-5.76-2.46-12.58-5.67-18.86-6.29,34.47-23.37,63.29-53.46,94.3-80.82Z"/>
            <path class="cls-11" d="M613.2,344.87c-1.03,1.27-1.84,4.25-4.04,3.59-2.59-4.35-5.62-8.45-8.53-12.57,9.99-11.32,20.34-22.39,28.74-35.02-1.68,11.93-8.43,34.48-16.16,44Z"/>
            <path class="cls-38" d="M526.09,260.45c-3.73-1.7-7.69-3.41-11.67-4.49,14.26-22.6,29.66-38.11,48.49-56.58-4.44,8.56-10.67,16.19-15.27,24.7-6.78,12.57-9.94,28.1-21.55,36.37Z"/>
            <g>
              <path class="cls-20" d="M381.89,430.21c-.92,1.53-1.94,3.01-3.08,4.46,0-.94-.01-1.87-.04-2.8-1.16-38.81-30.14-74.67-72.25-57.37-6.91,2.84-16.05,12.92-20.21,13.47-2.39.33-4.96-.94-5.39-.89l-6.28-8.53c18.41-15.55,41.25-26.78,65.55-28.74-14.24-17.39-32.42-31.9-54.33-38.17-.9-.46.73-1.77.9-1.8,6.08-1.03,34.79,18.52,40.41,23.35,2.35,2.02,17.56,21.63,20.21,17.52-9.57-28.94-26.68-54.77-48.5-75.89,23.53,19.7,39.84,45.48,49.85,74.54,8.17-32.22-12.51-66.62-30.99-91.6-15.77-21.32-35.93-40.73-55.68-58.38-11.71-13.53-64.02-60.04-79.47-63.76-7.54-1.81-13.27-1.96-15.72,6.74-6.26,22.2,7.82,95.51,15.27,119.44,9.06,29.11,25.1,55.47,45.8,77.68-.8,3.64-6.29-3.71-8.53-5.39-1.05,3.62,9.76,8.51,4.94,8.98-8.58-9.19-17.99-19.33-25.15-29.63-9.49-13.66-17.1-28.59-23.35-44.01-6.3-28.31-15.39-53.08-17.96-83.07-1.2-14.07-6.13-58.4,13.02-61.51,1.07-.18,2.18-.26,3.3-.26,25.33-.09,62.34,41.68,79.77,56.83,8.05,10.76,17.22,20.63,26.59,30.36,14.23,14.79,28.91,29.25,40.76,45.98,17.08,24.08,31.72,52.61,32.33,82.62-4.14,19.93-.75,10.59,11.68,20.65,19.89,16.12,30.19,46.5,16.55,69.18Z"/>
              <path class="cls-1" d="M343.76,250.98s-.02.09-.04.14c0,.01,0,.02-.02.03-.02.07-.06.13-.12.18,0,0,0,.02-.01.02-.06.06-.13.11-.23.12h-.01c-1.93.39-3.83.74-5.7,1.1-5.62,1.11-11,2.38-16.3,5.19-.92-1.3-1.87-2.6-2.83-3.87-.46-.63-.93-1.25-1.42-1.87-.57-.76-1.16-1.51-1.75-2.25-.45-.58-.92-1.16-1.39-1.74-.49-.62-.99-1.23-1.5-1.84-1.62-1.98-3.28-3.92-4.96-5.85-.56-.64-1.11-1.27-1.68-1.9-.85-.96-1.7-1.91-2.56-2.85-.7-.79-1.42-1.57-2.15-2.35-.72-.78-1.45-1.56-2.17-2.34-6.08-6.5-12.33-12.85-18.5-19.26-.01-.01-.02-.01-.03-.02-4.62-4.81-9.2-9.66-13.61-14.63-2.25-2.53-4.46-5.09-6.61-7.7-.52-.63-1.03-1.27-1.55-1.91-.64-.79-1.28-1.58-1.89-2.38-.42-.52-.82-1.05-1.23-1.57-.51-.66-1.01-1.32-1.5-1.98,17.99,15.64,35.17,32.35,54.31,46.68,9.06,6.79,18.88,14.92,29.48,19.44,1.97.84,3.96,1.55,5.99,2.11-.06.01.11.77-.02,1.3Z"/>
              <path class="cls-1" d="M224.35,343.07l-9.43,14.37c-1.2-1.44-2.9-2.57-4.04-4.04-2.05-2.64-13.85-31.04-14.37-34.13-.14-.85.2-6.06,2.69-5.84,7.16,10.3,16.57,20.44,25.15,29.64Z"/>
              <path class="cls-22" d="M256.67,301.76l-17.06-8.98c-1.04-.94.51-4.25.9-4.49l18.86,11.23c-.46,2.05-2.61,2.09-2.69,2.25Z"/>
              <path class="cls-36" d="M317.74,257.76c-6.78,2.91-15.12,9.26-22.45,8.98l-13.47-11.23c2.55-.87,10.62,7.06,11.23,6.74,2.86-1.51-14.4-39.81-16.61-43.56-2.76-4.68-10.71-15.08-14.37-19.31,19.75,17.64,39.91,37.06,55.68,58.37Z"/>
              <g>
                <path class="cls-24" d="M262.06,199.38c3.66,4.23,11.61,14.63,14.37,19.31,2.21,3.75,19.47,42.04,16.61,43.56-.6.32-8.68-7.61-11.23-6.74l13.47,11.23c-1.47-.06-1.6.44-2.69.9-12.39-10.63-29.82-18.91-44.45-26.04l-8.53-1.35c20.23,6.47,36.39,17.26,52.98,30.08-3.11,4.87-9.25,5.82-13.47,8.98l-27.39-14.37,25.59,16.16c-3.41,2.77-6.69,5.96-9.88,8.98-7.41-2.36-15.29-9.94-23.35-8.53l22.45,10.33c-.96.92-5,6.21-5.84,6.29-1.16.1-15.85-12.63-20.21-9.88-.38.24-1.93,3.55-.9,4.49l-8.53-3.59c-3.67,1.48,25.3,10.81,22.9,16.16-1.23,1.6-2.92,2.71-3.59,3.59-1.51-2.05-22.57-13.63-23.35-11.23l23.35,11.23c-1.78,2.32-3.66,4.83-5.39,7.18-8.68-5.53-18.75-13.24-29.64-12.12,10.52,2.63,20.31,6.92,28.74,13.92-1.48,2.01-3.23,3.74-4.49,5.39-2.02.68-15.79-9.38-15.27-5.84l13.47,8.53c-1.17,1.57-2.23,3.63-3.59,5.39-1.54-.53-10.91-8.97-11.67-5.84l10.78,7.63c-1.55,1.95-2.46,5.16-5.39,6.29-20.7-22.21-36.74-48.57-45.8-77.68-7.45-23.93-21.52-97.24-15.27-119.44,2.45-8.7,8.18-8.55,15.72-6.74,15.45,3.72,67.76,50.23,79.48,63.76Z"/>
                <g>
                  <path class="cls-20" d="M292.6,267.64c1.51,1.29,4.84,5.78,6.29,7.18-1.38-1.15-4.48-3.1-6.29-4.49-16.59-12.83-32.75-23.61-52.98-30.08l8.53,1.35c14.63,7.13,32.06,15.41,44.45,26.04Z"/>
                  <path class="cls-3" d="M245,316.13c-.25.34-.65,1.46-.9,1.8-8.43-7-18.22-11.29-28.74-13.92,10.89-1.12,20.95,6.6,29.64,12.12Z"/>
                  <path class="cls-40" d="M239.61,292.78l17.06,8.98c-1.05,1.86-1.7,2.29-2.69,3.59,2.4-5.35-26.57-14.69-22.9-16.16l8.53,3.59Z"/>
                  <path class="cls-3" d="M279.13,279.31c-.18.14-.96,1.12-1.8,1.8l-25.59-16.16,27.39,14.37Z"/>
                  <path class="cls-40" d="M267.45,290.09c-.07.07.36.58-.9,1.8l-22.45-10.33c8.06-1.41,15.94,6.18,23.35,8.53Z"/>
                  <path class="cls-40" d="M239.61,323.32c-.36.47-.98,1.6-1.8,2.69l-13.47-8.53c-.52-3.54,13.24,6.51,15.27,5.84Z"/>
                  <path class="cls-43" d="M234.22,331.4c-.06.08.06.58-.9,1.8l-10.78-7.63c.76-3.13,10.14,5.3,11.67,5.84Z"/>
                  <path class="cls-40" d="M267.45,263.15c-12.99-6.71-26.19-11.32-40.41-14.82,9.46-.39,17.04,3.15,25.59,6.74,5.73,2.4,8.44,3.62,14.82,8.08Z"/>
                  <path class="cls-3" d="M241.86,270.33c3.18-1.53,27.61,8.76,26.49,11.23l-26.49-11.23Z"/>
                  <path class="cls-40" d="M250.39,308.95l-23.35-11.23c.78-2.4,21.84,9.18,23.35,11.23Z"/>
                  <path class="cls-40" d="M267.45,263.15c3.12,1.61,6.96,2.52,8.98,5.84-3.79.71-6.69-4.24-8.98-5.84Z"/>
                </g>
              </g>
            </g>
            <g>
              <path class="cls-14" d="M607.81,319.72c-2.61-.82-1.07-.96-3.59-.9-4.8.12-7.42,3.55-12.57,5.39-2.65-3.55-6.29-3.58-2.69-8.98,5.28-3.39,9.9-8.81,15.72-11.67-4.26,1.49-16.65,7.07-19.31,9.88-4.2-.15-2.98-2.31-4.49-3.59l15.27-11.23c-1.09-3.4-15.68,7.59-16.61,7.63-3.69.18-5.51-5.16-5.84-5.39l17.06-12.12c-3.7.59-15.08,6.18-17.06,8.53-3.16.92-6.2-.21-6.29-4.04l13.02-10.33c-8.97.72-14.45,13.75-21.1,3.14l22-15.72c-5.76-.75-22.64,13.39-25.15,12.57-10.27-3.37,17.38-16.92,19.76-18.86-5.48-3.08-23.68,13.46-25.15,13.47-12.88.1,18.91-17.81,18.41-20.66,8.66-4.17,17.45-9.19,27.39-8.98l.9-2.69c-18.89,2.59-41.35,13.74-56.13,26.04l-1.8-3.59,4.94-6.29c-1.67,1.24-7.67,3.54-5.84,6.29-4.05.3-4.04-2.9-5.39-3.59l13.02-9.88-14.82,8.98c-1.75-.88-3.61-1.89-5.39-2.69,11.61-8.27,14.77-23.8,21.55-36.37,4.59-8.51,10.83-16.14,15.27-24.7,14.83-14.54,65.73-62.99,83.97-65.56,17.44-2.46,15.14,12.91,14.82,26.49-1.22,51.15-21.05,119.82-53.88,159.4Z"/>
              <path class="cls-41" d="M569.19,256.86c.5,2.84-31.29,20.76-18.41,20.66,1.46-.01,19.67-16.55,25.15-13.47-2.38,1.94-30.03,15.49-19.76,18.86,2.5.82,19.38-13.32,25.15-12.57l-22,15.72c6.65,10.6,12.13-2.43,21.1-3.14l-13.02,10.33c.09,3.84,3.12,4.96,6.29,4.04-.2.24-.29,2.08-1.8,2.69-10.32-8.61-18.01-19.29-27.84-26.94,8.5-6.87,15.24-11.39,25.15-16.16Z"/>
              <path class="cls-25" d="M607.81,319.72c-2.17,2.61-7.02,10.73-9.88,11.67s-5.42-2.35-4.49-5.39c.39-1.27,9.15-5.84,10.78-7.18,2.52-.07.99.07,3.59.9Z"/>
              <path class="cls-3" d="M580.87,309.84c-3.35-2.86-8.47-4.85-8.98-9.88.25.21,1.47.67,1.8.9s2.15,5.57,5.84,5.39c.93-.05,15.52-11.03,16.61-7.63l-15.27,11.23Z"/>
              <path class="cls-10" d="M588.95,315.23c-4.65,2.99-7.23,2.05-3.59-1.8,2.66-2.81,15.05-8.39,19.31-9.88-5.82,2.87-10.44,8.28-15.72,11.67Z"/>
              <path class="cls-10" d="M604.22,318.83c-1.63,1.34-10.39,5.92-10.78,7.18-3.97,1.9-1.67-1.62-1.8-1.8,5.15-1.84,7.78-5.26,12.57-5.39Z"/>
              <path class="cls-10" d="M573.69,300.86c-.33-.23-1.54-.69-1.8-.9,1.5-.62,1.6-2.46,1.8-2.69,1.98-2.35,13.36-7.94,17.06-8.53l-17.06,12.12Z"/>
              <path class="cls-10" d="M533.27,264.04c-.58-.29-1.21-.6-1.8-.9l14.82-8.98-13.02,9.88Z"/>
              <path class="cls-3" d="M539.56,267.64c-.3.02-.6-.02-.9,0-1.83-2.75,4.16-5.05,5.84-6.29l-4.94,6.29Z"/>
            </g>
          </g>
          <g>
            <path class="cls-26" d="M547.64,387.97c.52,1.23,1.8,7.26,1.8,8.08-.2,25.21-29.28,41.77-52.54,39.51-9.55-.92-15.75-8.56-22.9,0-2.76,3.3-5.27,9.23-6.29,13.47-.01.06-.81-.29-.9.9-1.78.74-2.5-1.7-2.69-1.8-.87-2.02-.39-4.67-1.8-6.29,5.84-27.46,8.54-69.83,45.35-71.84,11.81-.65,34.91,5.87,39.96,17.96Z"/>
            <g>
              <path class="cls-12" d="M500.05,381.69c-.56.9-.66,3.45-.9,4.49-12.06,3.3-15.78,7.56-15.27,19.31.03.74,1.79.36,1.8.45.24,2.29-1.64,4.83-.9,7.63,2.41,9.14,12.68,8.59,12.57-.45,4.33-1.06,0,5.3,5.39,4.49,7.36,13.36,12.02-10.85,12.57-17.06,3.12.71,8.11-1.72,9.88-4.49,7.7,2.03,9.04,8.01,15.27-.9,4.08,27.06-27.26,43.41-50.74,34.13-24.5-9.69-16.81-42.67,4.04-50.29l6.29,2.69Z"/>
              <path class="cls-31" d="M540.46,395.16c-6.23,8.91-7.56,2.92-15.27.9,2.89-4.52,1.97-12.11-2.69-14.37l3.59-2.69c6.79,2.55,13.26,8.82,14.37,16.16Z"/>
              <path class="cls-37" d="M526.09,378.99l-3.59,2.69c-3.23-1.57-9.3.58-10.78,3.59-1.84-5.8-7.15-10.86-11.67-3.59l-6.29-2.69c9.56-3.5,22.86-3.55,32.33,0Z"/>
              <path class="cls-26" d="M511.72,385.28c-1.88,3.82-1.49,14.1,3.59,15.27-.56,6.21-5.21,30.42-12.57,17.06-3.69-6.7-5.27-24.05-3.59-31.43.24-1.04.34-3.59.9-4.49,4.52-7.27,9.84-2.21,11.67,3.59Z"/>
              <path class="cls-31" d="M499.15,386.18c-1.68,7.38-.1,24.74,3.59,31.43-5.4.81-1.06-5.55-5.39-4.49-.09-7.32-6.28-6.45-11.67-7.18,0-.09-1.76.29-1.8-.45-.51-11.75,3.2-16.01,15.27-19.31Z"/>
              <path class="cls-7" d="M522.5,381.69c4.66,2.26,5.58,9.85,2.69,14.37-1.77,2.77-6.76,5.2-9.88,4.49-5.08-1.16-5.47-11.45-3.59-15.27,1.48-3.01,7.55-5.16,10.78-3.59Z"/>
              <path class="cls-4" d="M497.35,413.12c.11,9.04-10.17,9.59-12.57.45-.74-2.8,1.14-5.34.9-7.63,5.39.73,11.59-.14,11.67,7.18Z"/>
            </g>
          </g>
        </g>
      </g>
    </g>
  </g>
</svg>